inDegrees=no
num_controls=7
num_derivatives=13
num_iterations=127
num_multipliers=7
num_parameters=0
num_slacks=7
num_states=26
objective=0.496920
objective_accelerations=0.042479
objective_balance=0.003605
objective_effort=0.039382
objective_height=0.405935
objective_ligament=0.005519
solver_duration=1444.952168
status=Solve_Succeeded
success=true
DataType=double
version=3
OpenSimVersion=4.5
endheader
time	/jointset/ground_pelvis/pelvis_tilt/value	/jointset/ground_pelvis/pelvis_tx/value	/jointset/ground_pelvis/pelvis_ty/value	/jointset/hip_r/hip_flexion_r/value	/jointset/hip_r/hip_adduction_r/value	/jointset/hip_r/hip_rotation_r/value	/jointset/back/lumbar_extension/value	/jointset/patellofemoral_r/patellar_flexion_r/value	/jointset/knee_r/knee_flexion_r/value	/jointset/knee_r/knee_adduction_r/value	/jointset/knee_r/knee_rotation_r/value	/jointset/ankle_r/ankle_angle_r/value	/jointset/subtalar_r/subtalar_angle_r/value	/jointset/ground_pelvis/pelvis_tilt/speed	/jointset/ground_pelvis/pelvis_tx/speed	/jointset/ground_pelvis/pelvis_ty/speed	/jointset/hip_r/hip_flexion_r/speed	/jointset/hip_r/hip_adduction_r/speed	/jointset/hip_r/hip_rotation_r/speed	/jointset/back/lumbar_extension/speed	/jointset/patellofemoral_r/patellar_flexion_r/speed	/jointset/knee_r/knee_flexion_r/speed	/jointset/knee_r/knee_adduction_r/speed	/jointset/knee_r/knee_rotation_r/speed	/jointset/ankle_r/ankle_angle_r/speed	/jointset/subtalar_r/subtalar_angle_r/speed	/forceset/tau_hip_flexion_r	/forceset/tau_hip_adduction_r	/forceset/tau_hip_rotation_r	/forceset/tau_knee_flexion_r	/forceset/tau_ankle_angle_r	/forceset/tau_subtalar_angle_r	/forceset/tau_lumbar_extension	lambda_cid13_p0	lambda_cid14_p0	lambda_cid14_p1	lambda_cid14_p2	lambda_cid14_p3	lambda_cid14_p4	lambda_cid14_p5	/jointset/ground_pelvis/pelvis_tilt/accel	/jointset/ground_pelvis/pelvis_tx/accel	/jointset/ground_pelvis/pelvis_ty/accel	/jointset/hip_r/hip_flexion_r/accel	/jointset/hip_r/hip_adduction_r/accel	/jointset/hip_r/hip_rotation_r/accel	/jointset/back/lumbar_extension/accel	/jointset/patellofemoral_r/patellar_flexion_r/accel	/jointset/knee_r/knee_flexion_r/accel	/jointset/knee_r/knee_adduction_r/accel	/jointset/knee_r/knee_rotation_r/accel	/jointset/ankle_r/ankle_angle_r/accel	/jointset/subtalar_r/subtalar_angle_r/accel	gamma_cid13_p0	gamma_cid14_p0	gamma_cid14_p1	gamma_cid14_p2	gamma_cid14_p3	gamma_cid14_p4	gamma_cid14_p5
0	-0.006515410074780821	0.09626030949974006	0.942724069922778	0.1762555222360518	-0.2321527319462783	-0.2616406457131527	-0.038598046466844	0.0731786387345119	0.07317863873451017	0.1745328331816541	0.1745329099003827	0.03247278518263602	-0.003452021609993521	0	0	0	0	0	0	0	0	0	0	0	0	0	0.2227757391880457	-0.1530008020529109	-0.0435223693656548	-0.4011072741403175	0.3940268670346578	-0.1501338417405422	-0.1200404255567741	-39.0762435102895	76.54218680124528	-41.94514992023913	-4.110744676196535	-30.36729400742905	-678.8604306896868	52.11100330695037	-1.916605666083394	-1.139950448478183	-0.5939338818987276	9.014125201445207	0.3009813385021727	2.460980514113896	-5.006081816814989	9.412545824615188	9.412545824615675	-3.14693023717617	0.183033005118637	3.212806801045212	1.041026935020581	1.085702882270359e-07	7.040523041148828e-08	-6.90309659386553e-07	2.442184990876823e-07	2.940129197905456e-08	3.348653091652914e-08	-3.678916935226422e-07
0.01	-0.006604512255367789	0.09620590610203329	0.9426955872553558	0.1766898508510394	-0.2321367945897576	-0.2615084006163053	-0.03884986433660036	0.07363680778510638	0.07363680778510705	0.1743760739064983	0.1745295332166776	0.03263222941030404	-0.003399420025628771	-0.01772965672530372	-0.01065095247219198	-0.005681367694704052	0.08628491592254509	0.003086753481816011	0.02635751886290088	-0.04992713238438321	0.09132741365767368	0.09132741365767087	-0.03104670694512939	-0.0006564063986499466	0.03200062781474294	0.01044093944355511	0.2223058359041506	-0.1682345471862241	-0.04392581358647919	-0.4061404838629838	0.4021714059489798	-0.1385770209907524	-0.1186620787805313	-39.09147401448168	79.67051571385213	-36.47080858102122	-4.877809952978799	-34.74761478826368	-679.2659335143377	63.21962568957535	-1.687521873304108	-0.9932027060380614	-0.5529566474893121	8.348560756526464	0.2973487348422228	2.709469663956607	-4.920562714165648	8.946857953058105	8.946857953057284	-3.037850754541858	-0.1870702976553855	3.210477499756168	1.03363999002179	1.464279938974322e-07	7.326275509708699e-08	-9.544014314927262e-07	2.296532244573267e-07	6.516498297541988e-08	-1.422938516001051e-07	-4.344533032066153e-07
0.02	-0.006868186242719275	0.09605188616771487	0.9426107472241402	0.177969605819024	-0.2320930244220541	-0.2611153139125121	-0.03958786028318385	0.07499905473562525	0.07499905473562585	0.1739179855956083	0.1745201739019188	0.03311503726173317	-0.00324480653862873	-0.03491436135261604	-0.01992330732233583	-0.01127147275871039	0.1690852705997823	0.005566562236468872	0.05216832138893874	-0.09723561536538897	0.1808155799839342	0.1808155799839225	-0.06026580714467959	-0.001196526209241577	0.06467272475217918	0.02040238052706245	0.2218359326202505	-0.1834682923195407	-0.04432925780734052	-0.4111736935856426	0.4103159448633026	-0.1270202002409654	-0.1172837320042937	-39.13653386536968	82.88357502592915	-31.0063821555651	-5.615020993691529	-39.30544385640245	-678.3685546187129	74.07320501162927	-1.807615246485087	-0.864230924068586	-0.5756813557591844	8.317212952383644	0.1795923930695442	2.351637246741267	-4.482351936139481	9.044696358332573	9.044696358331837	-2.781408888060335	0.2062903227303255	3.347100625583845	0.9451272630110236	1.842856995678286e-07	7.612027978268572e-08	-1.218493203598899e-06	2.15087949826971e-07	1.009286739717852e-07	-3.180742341167393e-07	-5.010149128905883e-07
0.03	-0.00730152652218677	0.09580967814295467	0.9424701576828112	0.1800629609111684	-0.2320270425417631	-0.2604700435434695	-0.04078679897440816	0.07724652552289558	0.07724652552289499	0.173176488295444	0.1745083900822509	0.03392452138441222	-0.002993220797692909	-0.05167213401195313	-0.02852261349902375	-0.01685259802473411	0.249241812924336	0.007600384779897715	0.07673108502182617	-0.1422570185112981	0.2682483129730164	0.2682483129730018	-0.08782163509237921	-0.001172884829190413	0.09699127098633063	0.02983442897575147	0.2145166585858553	-0.1903656304741841	-0.04211000949079027	-0.4009121672671738	0.3921809469552011	-0.11372354874261	-0.1117085307096077	-39.21039090632362	77.58919285812652	-26.25432461481759	-6.263351174552541	-35.8418277242978	-677.7982099171691	82.37561381895831	-1.597605027737057	-0.8584075147050418	-0.5503168147424882	7.813297021842169	0.2107204663759165	2.485460031664993	-4.467768848541119	8.527985084533238	8.527985084533334	-2.711036932586964	-0.101412763252648	3.139344606360986	0.9300242949477627	2.095582194493395e-07	8.478109110510669e-08	-1.37049331169493e-06	2.602875044453292e-07	1.181984791262159e-07	-4.232280580408777e-07	-5.895709010123843e-07
0.04	-0.007899993878665381	0.0954813516463803	0.9422735591482784	0.1829475658564284	-0.2319416337797585	-0.2595837727160789	-0.04242709856603673	0.08035540830312539	0.08035540830312529	0.1721657592789132	0.1744964799146014	0.03505021356623861	-0.00264975844044026	-0.06793977675444723	-0.03714700168517084	-0.02247327139950568	0.327335241222928	0.009451938579180448	0.1003684130588137	-0.1855077954461832	0.3530979785755866	0.3530979785755753	-0.114112150418567	-0.001221795804945092	0.127914336581689	0.03877770379043738	0.2071973845514727	-0.1972629686288259	-0.03989076117424147	-0.3906506409486969	0.3740459490471029	-0.100426897244252	-0.1061333294149145	-39.31154242539122	72.37265878435576	-21.50253360232	-6.895763637571585	-32.55566066816106	-676.0558627653222	90.46308395219815	-1.709589263116464	-0.8692473259604473	-0.583590977508753	7.904590147191299	0.1431386442403246	2.166550127561257	-4.128226693934673	8.528082881030155	8.528082881030674	-2.528346363757962	0.1917798515691803	3.0680044978252	0.8473725362103964	2.345712509640692e-07	9.356155782210131e-08	-1.520182251460854e-06	3.067193235842795e-07	1.350869670467923e-07	-5.26925664262078e-07	-6.785803814731045e-07
0.05	-0.008659017253938363	0.09506703544013693	0.9420203437647741	0.1866033543124784	-0.2318386284321346	-0.2584675644375933	-0.04449050784235244	0.08430135243489811	0.0843013524348967	0.1708984427150291	0.174485651460509	0.03647916128718056	-0.002219036773365429	-0.08377101265515051	-0.04567962871738741	-0.02818981092046687	0.403437303112767	0.01110849826414665	0.1227228902767363	-0.2268685450883436	0.4357017310339559	0.4357017310339182	-0.1391111326619088	-0.0009648964752882603	0.157709274641632	0.04729137975062344	0.2003585886397348	-0.1821913137589275	-0.03811663082293691	-0.3831046343335419	0.3649813857912709	-0.1082058872391353	-0.1007898872124231	-39.43814326082291	69.26042886348225	-25.4671716388288	-6.216525043027947	-30.52022773421392	-674.674993515692	81.03007089921127	-1.505780121071084	-0.8397516111359786	-0.5687925053473731	7.405259212130749	0.1706558255383847	2.247430159960709	-4.094171890019195	8.068106800150719	8.068106800146682	-2.449874039827973	-0.06039669615898929	2.910395110792483	0.8418724138707639	2.259200333814489e-07	8.524704074200231e-08	-1.448561631306013e-06	2.954644372548555e-07	1.373016256132221e-07	-5.978410506215411e-07	-6.602983460786205e-07
0.06	-0.009573530861724799	0.0945684967197146	0.9417093415728686	0.1910086123878762	-0.2317203092486783	-0.2571323046587184	-0.0469583591732225	0.08906165116563561	0.08906165116563508	0.1693882963516737	0.1744767836657503	0.03820108971886457	-0.001705476889099158	-0.09903782325680305	-0.05399150452096573	-0.03403063307972765	0.4772291650926286	0.01251470574565699	0.1441787131367763	-0.2663962063569996	0.5159688983687412	0.515968898368685	-0.1626781103134778	-0.0008296639385483615	0.1865104787301199	0.05534534722873147	0.1935197927280018	-0.1671196588890282	-0.03634250047161901	-0.3755586277183855	0.3559168225354404	-0.1159848772340175	-0.09544644500992935	-39.58804655298763	66.21854731767704	-29.44717640910829	-5.503213381999895	-28.63267408597227	-672.1995897184318	71.36383058961573	-1.596704203306291	-0.8250970802328235	-0.6084475051686685	7.442550165195824	0.09306820354915596	1.986819255984713	-3.761609019233795	8.060765856313353	8.060765856315488	-2.241945445403381	0.167446492985812	2.869257703534152	0.7554308397947885	2.158513737315717e-07	7.621273487044676e-08	-1.367622713891351e-06	2.817806370109736e-07	1.388984387331615e-07	-6.673761329868256e-07	-6.374987731744436e-07
0.07000000000000001	-0.01063848635375082	0.09398787599786926	0.9413391101209058	0.1961412921388568	-0.2315892042758583	-0.255589112635792	-0.04981197701549094	0.0946138565891744	0.09461385658917569	0.1676497615990691	0.1744708111646461	0.04020617547993642	-0.001113632233972783	-0.1138669643973067	-0.06210007707420567	-0.04004606436847084	0.5489354461091783	0.01368575243499318	0.1643065401289961	-0.3040395359075919	0.5940729125095251	0.5940729125094704	-0.1848181001723125	-0.0004046641583779247	0.2143333144454334	0.06296929666017054	0.1864287191120365	-0.1605258363814241	-0.03434007958635052	-0.3684270141862037	0.3449039660613547	-0.1152070811229895	-0.0899379321306687	-39.75897770861094	62.83924086515278	-29.81457727599581	-5.314989165659207	-26.63525735820202	-670.288616267974	68.91564896403601	-1.413042342367234	-0.7988251278031911	-0.6027863171457755	6.97898318907441	0.1259050432128857	2.00286957725204	-3.722520994566201	7.625285070334074	7.625285070332975	-2.168594019466417	-0.02585177125145669	2.712835055078619	0.7575515341818593	1.938526051912346e-07	6.470043167742498e-08	-1.199175462246455e-06	2.682789531171331e-07	1.314341852027497e-07	-7.001515354457413e-07	-5.905066721862894e-07
0.08	-0.01184913791177227	0.09332715199350475	0.9409077852807717	0.2019798979238397	-0.2314470324078275	-0.2538492213116604	-0.05303339336758431	0.1009351153295951	0.1009351153295984	0.1656961132952059	0.1744679129629868	0.04248429730807124	-0.000447213176659347	-0.1281770364555996	-0.07001216102480148	-0.0462493107139552	0.6184143718933242	0.01472808478781103	0.183518573377673	-0.3399559083219509	0.6697795617452356	0.6697795617451723	-0.2057008205648628	-0.0002148040495722733	0.241117692142693	0.07026022766614515	0.1793376454960701	-0.1539320138738214	-0.03233765870107724	-0.3612954006540245	0.3338911095872678	-0.1144292850119633	-0.08442941925140768	-39.94834365645288	59.52323566078336	-30.18868206909551	-5.105377987114601	-24.77078775740993	-667.4047417383781	66.27027727730335	-1.492890386864137	-0.785799359704019	-0.6460105165169033	6.997079118715033	0.06732533624548646	1.803660507276138	-3.416217591987116	7.581292875298656	7.581292875298767	-1.990491552146485	0.1204185587128691	2.661566099923332	0.6888271547018988	1.710841522063518e-07	5.302825768946991e-08	-1.025082511618964e-06	2.547890186652309e-07	1.233853467271541e-07	-7.305553456526332e-07	-5.419537629346529e-07
0.09	-0.01320092054153091	0.09258838565258116	0.9404133128537915	0.208503086121933	-0.2312952568058116	-0.2519236170538977	-0.05660486226030008	0.1080024496430734	0.1080024496430749	0.1635402452122022	0.1744677317836066	0.04502540751260641	0.0002903763381097148	-0.1421017286658055	-0.07769609111625196	-0.05268345799485107	0.6858486039584392	0.01561138124373119	0.2014424780630882	-0.3740565417763488	0.7432875845539789	0.7432875845539222	-0.2252670619345892	0.0001373569521307884	0.2669444435482281	0.07721269321710975	0.1725112511747506	-0.1525976065396163	-0.03037910613970514	-0.3556872369147638	0.323633716671284	-0.1088144977518828	-0.07907149402848154	-40.15343065821778	56.60359853869678	-28.41185489518775	-5.216782697717046	-23.35497306569735	-665.1088872509151	67.97811011583119	-1.330565101258115	-0.7529128803850194	-0.6480059332325065	6.56041113869954	0.09639938881934178	1.762849570720191	-3.364786955399943	7.1755656753502	7.175565675351168	-1.908954215193743	-0.01349100707517441	2.519276001222983	0.6915791994669604	1.349540895906312e-07	4.099237429319027e-08	-7.374089374516158e-07	2.674858255308495e-07	1.029546809554743e-07	-7.21747940747141e-07	-4.855824853231171e-07
